<svg id="Layer_1" height="512" viewBox="0 0 128 128" width="512" xmlns="http://www.w3.org/2000/svg" data-name="Layer 1"><path d="m93.065 37.4a5.78 5.78 0 1 0 -5.78 5.779 5.787 5.787 0 0 0 5.78-5.779zm-8.06 0a2.28 2.28 0 1 1 2.28 2.279 2.282 2.282 0 0 1 -2.28-2.279z"/><path d="m103.808 86.531a5.78 5.78 0 1 0 5.779 5.78 5.787 5.787 0 0 0 -5.779-5.78zm0 8.06a2.28 2.28 0 1 1 2.279-2.28 2.282 2.282 0 0 1 -2.279 2.28z"/><path d="m24.192 54.005a5.78 5.78 0 1 0 -5.779-5.78 5.787 5.787 0 0 0 5.779 5.78zm0-8.06a2.28 2.28 0 1 1 -2.279 2.28 2.282 2.282 0 0 1 2.279-2.28z"/><path d="m34.935 90.5a5.78 5.78 0 1 0 5.78-5.781 5.786 5.786 0 0 0 -5.78 5.781zm8.06 0a2.28 2.28 0 1 1 -2.28-2.281 2.283 2.283 0 0 1 2.285 2.281z"/><path d="m89.255 105.366h-1.25v-1.25a1.75 1.75 0 1 0 -3.5 0v1.25h-1.25a1.75 1.75 0 0 0 0 3.5h1.25v1.25a1.75 1.75 0 0 0 3.5 0v-1.25h1.25a1.75 1.75 0 0 0 0-3.5z"/><path d="m103.808 15.2a1.749 1.749 0 0 0 -1.75 1.75v1.25h-1.25a1.75 1.75 0 0 0 0 3.5h1.25v1.25a1.75 1.75 0 1 0 3.5 0v-1.25h1.25a1.75 1.75 0 0 0 0-3.5h-1.25v-1.25a1.75 1.75 0 0 0 -1.75-1.75z"/><path d="m53 18.7h1.25v1.25a1.75 1.75 0 0 0 3.5 0v-1.25h1.25a1.75 1.75 0 0 0 0-3.5h-1.25v-1.25a1.75 1.75 0 0 0 -3.5 0v1.25h-1.25a1.75 1.75 0 0 0 0 3.5z"/><path d="m71.654 69.991a9.746 9.746 0 1 0 -7.674 3.709 9.866 9.866 0 0 0 1.161-.069 9.682 9.682 0 0 0 6.513-3.64zm-2.747-2.169a6.25 6.25 0 1 1 -5.638-10.078 6.427 6.427 0 0 1 .744-.044 6.251 6.251 0 0 1 4.894 10.122z"/><path d="m47.223 56.7a1.748 1.748 0 0 0 -2.469.17c-2.866 3.288-5.883 6.95-9.248 11.228a158.842 158.842 0 0 0 -15.25 24.402 1.748 1.748 0 0 0 .794 2.343 1.73 1.73 0 0 0 .774.182 1.748 1.748 0 0 0 1.57-.975 155.25 155.25 0 0 1 14.889-23.827c3.3-4.2 6.282-7.815 9.11-11.059a1.751 1.751 0 0 0 -.17-2.464z"/><path d="m80.777 71.206a1.751 1.751 0 0 0 2.469-.17c2.872-3.294 5.888-6.956 9.248-11.228a158.884 158.884 0 0 0 15.25-24.41 1.75 1.75 0 0 0 -3.138-1.551 155.25 155.25 0 0 1 -14.889 23.831c-3.3 4.192-6.277 7.809-9.11 11.059a1.751 1.751 0 0 0 .17 2.469z"/><path d="m58.324 89.754c-2.209 2.355-4.676 4.739-6.658 6.656-1.308 1.264-2.438 2.356-3.217 3.171-16.243 17-33.767 22.784-38.234 19.154-5.85-4.759 1.172-27.6 20.927-53.99 11.578-14.726 20.4-23.852 29.493-30.518a1.75 1.75 0 1 0 -2.07-2.822c-9.364 6.863-18.389 16.187-30.2 31.209-17.007 22.718-29.921 51.059-20.358 58.836a9.466 9.466 0 0 0 6.1 1.829c9.409 0 24.546-8.383 36.87-21.279.73-.765 1.837-1.835 3.12-3.075 2.009-1.942 4.511-4.36 6.777-6.777a1.75 1.75 0 1 0 -2.552-2.394z"/><path d="m99.635 65.385c17.007-22.717 29.921-51.058 20.358-58.836-7.31-5.944-27.393 3.145-42.972 19.451-.73.764-1.837 1.835-3.12 3.074-2.009 1.942-4.511 4.36-6.777 6.777a1.75 1.75 0 1 0 2.552 2.4c2.209-2.356 4.676-4.739 6.658-6.656 1.308-1.265 2.438-2.357 3.217-3.171 16.243-17 33.766-22.786 38.234-19.155 5.85 4.759-1.172 27.6-20.927 53.991-11.578 14.72-20.399 23.846-29.493 30.512a1.75 1.75 0 1 0 2.07 2.822c9.365-6.863 18.389-16.187 30.2-31.209z"/></svg>